<svg width="96" height="96" viewBox="0 0 96 96" fill="none" xmlns="http://www.w3.org/2000/svg">
<path d="M0 47.9844C0 21.4834 21.4834 0 47.9844 0C74.4855 0 95.9688 21.4834 95.9688 47.9844C95.9688 74.4855 74.4855 95.9688 47.9844 95.9688C21.4834 95.9688 0 74.4855 0 47.9844Z" fill="#00C950"/>
<path d="M74.1171 42.6518C75.3348 48.6279 74.4669 54.8407 71.6583 60.2543C68.8497 65.6679 64.2701 69.955 58.6831 72.4007C53.0962 74.8465 46.8397 75.3029 40.9569 73.694C35.0742 72.0852 29.9208 68.5081 26.3561 63.5595C22.7915 58.6109 21.0311 52.5898 21.3685 46.5004C21.7059 40.4109 24.1207 34.6212 28.2102 30.0966C32.2997 25.5721 37.8168 22.5863 43.8412 21.6372C49.8657 20.688 56.0335 21.8329 61.3161 24.8809" stroke="white" stroke-width="5.33263" stroke-linecap="round" stroke-linejoin="round"/>
<path d="M39.9854 45.3182L47.9843 53.3172L74.6474 26.6541" stroke="white" stroke-width="5.33263" stroke-linecap="round" stroke-linejoin="round"/>
</svg>
